<?xml version="1.0" encoding="UTF-8" standalone="no"?>
<!-- Created with Inkscape (http://www.inkscape.org/) -->

<svg
   xmlns:dc="http://purl.org/dc/elements/1.1/"
   xmlns:cc="http://creativecommons.org/ns#"
   xmlns:rdf="http://www.w3.org/1999/02/22-rdf-syntax-ns#"
   xmlns:svg="http://www.w3.org/2000/svg"
   xmlns="http://www.w3.org/2000/svg"
   xmlns:xlink="http://www.w3.org/1999/xlink"
   xmlns:sodipodi="http://sodipodi.sourceforge.net/DTD/sodipodi-0.dtd"
   xmlns:inkscape="http://www.inkscape.org/namespaces/inkscape"
   width="1126.3691"
   height="269.06821"
   id="svg2"
   version="1.1"
   inkscape:version="0.48.4 r9939"
   sodipodi:docname="logo_inkscape.svg"
   inkscape:export-filename="/home/tia/codes/github-com/StoreKeeper/client/app/img/logo.png"
   inkscape:export-xdpi="12.139934"
   inkscape:export-ydpi="12.139934">
  <title
     id="title3138">StoreKeeper</title>
  <defs
     id="defs4">
    <linearGradient
       id="linearGradient4344">
      <stop
         style="stop-color:#ffffff;stop-opacity:1;"
         offset="0"
         id="stop4346" />
      <stop
         style="stop-color:#ffffff;stop-opacity:1;"
         offset="0.75"
         id="stop4354" />
      <stop
         style="stop-color:#ffffff;stop-opacity:0;"
         offset="1"
         id="stop4348" />
    </linearGradient>
    <linearGradient
       inkscape:collect="always"
       id="linearGradient4324">
      <stop
         style="stop-color:#e5f100;stop-opacity:1;"
         offset="0"
         id="stop4326" />
      <stop
         style="stop-color:#e5f100;stop-opacity:0;"
         offset="1"
         id="stop4328" />
    </linearGradient>
    <linearGradient
       id="linearGradient3908">
      <stop
         style="stop-color:#ffffff;stop-opacity:0.7109375;"
         offset="0"
         id="stop3910" />
      <stop
         style="stop-color:#ffffff;stop-opacity:0.34375;"
         offset="1"
         id="stop3912" />
    </linearGradient>
    <linearGradient
       id="linearGradient3832">
      <stop
         id="stop3834"
         offset="0"
         style="stop-color:#fff1e3;stop-opacity:1;" />
      <stop
         style="stop-color:#ffd4cd;stop-opacity:0.9609375;"
         offset="0.125"
         id="stop4336" />
      <stop
         id="stop4338"
         offset="0.1875"
         style="stop-color:#ff503f;stop-opacity:1;" />
      <stop
         style="stop-color:#ff7c74;stop-opacity:1;"
         offset="0.25"
         id="stop4334" />
      <stop
         style="stop-color:#d70000;stop-opacity:1;"
         offset="0.5"
         id="stop4302" />
      <stop
         id="stop4340"
         offset="0.75"
         style="stop-color:#eb6141;stop-opacity:1;" />
      <stop
         style="stop-color:#f59262;stop-opacity:1;"
         offset="0.875"
         id="stop4342" />
      <stop
         id="stop3838"
         offset="1"
         style="stop-color:#ffc383;stop-opacity:1;" />
    </linearGradient>
    <linearGradient
       id="linearGradient3820">
      <stop
         style="stop-color:#d40000;stop-opacity:1;"
         offset="0"
         id="stop3822" />
      <stop
         id="stop3830"
         offset="0.5"
         style="stop-color:#d40000;stop-opacity:0.49803922;" />
      <stop
         style="stop-color:#d40000;stop-opacity:0;"
         offset="1"
         id="stop3824" />
    </linearGradient>
    <linearGradient
       inkscape:collect="always"
       xlink:href="#linearGradient3832"
       id="linearGradient4098"
       gradientUnits="userSpaceOnUse"
       gradientTransform="matrix(3.7646226,0,0,0.99637018,-204.26271,-3.3041864)"
       x1="68.634354"
       y1="270.40485"
       x2="364.70795"
       y2="270.40485" />
    <linearGradient
       inkscape:collect="always"
       xlink:href="#linearGradient3908"
       id="linearGradient4133"
       gradientUnits="userSpaceOnUse"
       x1="-19.099997"
       y1="131.355"
       x2="411.94855"
       y2="131.355"
       gradientTransform="matrix(3.7646226,0,0,0.99637018,51.262585,147.05746)" />
    <radialGradient
       inkscape:collect="always"
       xlink:href="#linearGradient3820"
       id="radialGradient4136"
       gradientUnits="userSpaceOnUse"
       gradientTransform="matrix(3.7646226,0,0,0.87139959,-204.26271,30.488465)"
       cx="216.67114"
       cy="270.40485"
       fx="216.67114"
       fy="270.40485"
       r="147.5368" />
    <linearGradient
       inkscape:collect="always"
       xlink:href="#linearGradient4324"
       id="linearGradient4332"
       gradientUnits="userSpaceOnUse"
       x1="102.35938"
       y1="149.56704"
       x2="936.98438"
       y2="149.56704" />
    <radialGradient
       inkscape:collect="always"
       xlink:href="#linearGradient4344"
       id="radialGradient4350"
       cx="547.50266"
       cy="129.79631"
       fx="547.50266"
       fy="129.79631"
       r="518.20824"
       gradientTransform="matrix(1,0,0,0.21837343,0,101.45224)"
       gradientUnits="userSpaceOnUse" />
  </defs>
  <sodipodi:namedview
     id="base"
     pagecolor="#ffffff"
     bordercolor="#666666"
     borderopacity="1.0"
     inkscape:pageopacity="0.0"
     inkscape:pageshadow="2"
     inkscape:zoom="0.7"
     inkscape:cx="146.35938"
     inkscape:cy="66.153459"
     inkscape:document-units="px"
     inkscape:current-layer="layer2"
     showgrid="false"
     inkscape:window-width="1920"
     inkscape:window-height="1031"
     inkscape:window-x="0"
     inkscape:window-y="25"
     inkscape:window-maximized="1"
     fit-margin-top="5"
     fit-margin-left="0"
     fit-margin-right="5"
     fit-margin-bottom="5"
     inkscape:snap-bbox="false"
     inkscape:bbox-paths="false"
     inkscape:snap-midpoints="false"
     showborder="true"
     inkscape:showpageshadow="true" />
  <metadata
     id="metadata7">
    <rdf:RDF>
      <cc:Work
         rdf:about="">
        <dc:format>image/svg+xml</dc:format>
        <dc:type
           rdf:resource="http://purl.org/dc/dcmitype/StillImage" />
        <dc:title>StoreKeeper</dc:title>
        <dc:creator>
          <cc:Agent>
            <dc:title>Andras Tim</dc:title>
          </cc:Agent>
        </dc:creator>
        <cc:license
           rdf:resource="" />
      </cc:Work>
    </rdf:RDF>
  </metadata>
  <g
     inkscape:groupmode="layer"
     id="layer5"
     inkscape:label="background box"
     style="display:none"
     transform="translate(3.771085,4.998127)"
     sodipodi:insensitive="true">
    <path
       style="fill:url(#radialGradient4350);fill-opacity:1;stroke:none"
       d="M 29.294424,207.55223 152.53303,16.633396 1052.579,34.816142 1065.7109,234.82635 c 0,0 -56.5685,7.07106 -64.6497,8.08122 -8.08125,1.01015 -468.71081,-13.13199 -468.71081,-13.13199 z"
       id="path4311"
       inkscape:connector-curvature="0"
       inkscape:export-filename="/home/tia/codes/github-com/StoreKeeper/client/app/img/path4311.png"
       inkscape:export-xdpi="12"
       inkscape:export-ydpi="12" />
  </g>
  <g
     inkscape:groupmode="layer"
     id="layer2"
     inkscape:label="background"
     transform="translate(-46.439162,-131.58715)"
     style="display:inline">
    <path
       style="fill:url(#linearGradient4098);fill-opacity:1;stroke:url(#radialGradient4136);stroke-width:1.93700004;stroke-miterlimit:4;stroke-dasharray:none"
       d="M 267.0562,137.55565 147.52943,152.5012 c -1.34788,2.91587 -2.50565,5.83851 -3.99991,8.74938 -7.16718,13.96184 -10.09585,17.62094 -18.11725,32.50658 -12.2626,22.75618 -22.5051,45.55395 -32.822805,68.3759 -8.824847,18.88708 -17.655406,37.78894 -26.705291,56.66855 -1.291688,2.69469 -8.711394,17.49767 -9.646846,21.35969 -0.52856,2.18218 0.02033,4.35203 0,6.53868 8.762939,2.00574 15.994903,4.60623 26.234714,6.04049 14.917814,2.08951 31.579818,3.20148 47.881298,4.35912 46.86762,3.32829 96.05262,4.89824 143.87917,6.69436 77.54328,2.91213 100.89331,3.6348 179.76073,6.32073 164.82726,5.72112 328.03028,14.09472 491.16561,22.44946 14.48694,0.70657 28.68476,2.01722 43.4108,2.11729 58.40935,0.39688 146.88515,-21.07696 163.05525,-25.12721 11.388,-2.85244 9.7016,-7.90926 11.8821,-12.01872 5.925,-11.16661 2.3904,-25.5023 1.1764,-36.49205 -1.7952,-7.50255 -3.4223,-15.01263 -5.4116,-22.51174 -9.9523,-37.51614 -4.5735,-11.76914 -13.2939,-48.97782 -4.3824,-18.69955 -7.5018,-37.38701 -10.1174,-56.1081 -0.1965,-1.96045 -1.5608,-17.59594 -2.3529,-20.83036 -0.67,-2.73571 -1.4275,-8.28452 -9.2939,-10.80439 -12.2828,-3.93459 -27.3462,-3.59509 -44.9402,-4.45253 -92.18229,-0.29455 -184.28013,0.91312 -276.46445,0.90296 -71.17486,-0.008 -93.45224,-0.34659 -165.05517,-0.96524 -94.84082,-1.61975 -49.48909,-0.72015 -135.64406,-2.67774 l -95.76259,18.15262 c 89.60133,1.27979 42.82658,0.64016 140.46748,1.89933 83.94665,0.87752 81.30629,1.0143 164.5846,1.18319 87.85654,0.17817 175.90289,-0.67469 263.64123,0.90296 4.35299,0.13435 29.32806,0.40376 35.88156,1.99274 7.439,1.80368 9.857,7.30196 10.9409,9.18529 3.0898,5.36831 6.3143,15.08132 8.1175,20.02081 14.8069,42.20258 29.5603,84.45002 32.8228,126.85038 -0.8667,12.30881 1.2074,24.40468 -9.7645,36.49206 -0.9021,0.99382 -3.4841,2.16401 -6.4704,3.39388 -1.4288,-0.0587 -2.9231,-0.10932 -4.3529,-0.15568 C 875.67295,367.98903 710.31393,359.69288 543.63831,353.3632 473.00884,350.75 436.75394,349.52496 367.17163,346.51316 310.07296,344.0417 242.69117,341.7048 189.76379,334.89922 c -7.20075,-0.9259 -13.0173,-2.47271 -19.52898,-3.70525 -0.57176,-1.97472 -1.66814,-3.9356 -1.76467,-5.91595 -0.24444,-5.01411 2.61865,-16.13199 3.76462,-20.45673 4.92432,-18.58367 11.51467,-37.16399 19.52898,-55.67218 10.52856,-23.02931 21.53696,-45.98706 37.41094,-68.81182 5.57913,-8.02204 18.6237,-24.92042 27.05823,-33.50294 3.0784,-3.13245 7.22992,-6.18491 10.82329,-9.2787 z m 854.9223,235.20564 c -0.8245,0.11003 -2.9422,0.37084 -4.4705,0.56045 1.1825,-0.15777 2.3413,-0.32105 3.5293,-0.46704 0.5654,-0.0694 0.6108,-0.0547 0.9412,-0.0934 z"
       id="path3038"
       inkscape:connector-curvature="0"
       inkscape:export-filename="/home/tia/codes/github-com/StoreKeeper/client/app/img/path3038.png"
       inkscape:export-xdpi="12"
       inkscape:export-ydpi="12" />
    <path
       style="fill:url(#linearGradient4133);fill-opacity:1"
       d="m 1138.7679,182.73997 c -0.169,0.029 -0.3019,0.0645 -0.4706,0.0934 0,0.0844 0,0.16693 0,0.24909 0.4974,0.37542 0.9743,0.73982 1.4117,1.12092 0.1303,0.0931 0.094,0.11552 0.2353,0.21796 0.8209,0.73187 1.5101,1.46966 2.2353,2.21069 -0.011,-0.17541 -0.01,-0.35064 0.1174,-0.24909 0.5341,0.43115 0.8963,0.74961 1.2941,1.08978 -3e-4,-0.39373 0,-0.78946 0,-1.18319 -8e-4,-0.10474 4e-4,-0.20663 0,-0.31137 -1.6506,-1.07412 -3.2832,-2.15287 -4.8234,-3.2382 z m 0.9411,1.46342 c -0.4681,-0.33399 -0.8348,-0.51746 -1.1764,-0.74728 0.2018,0.19289 0.3811,0.3218 0.5882,0.52932 0.1,0.1001 0.4371,0.2663 0.7059,0.40478 -0.068,-0.0604 -0.049,-0.12651 -0.1175,-0.18682 z m -1.4117,-1.12092 c -0.03,-0.022 -0.088,-0.0403 -0.1174,-0.0623 -0.091,0.36441 -0.2361,0.73744 -0.2353,1.05864 0.3023,0.32153 0.5363,0.56327 0.8235,0.87183 -0.3825,-0.58184 -0.4661,-1.10547 -0.4706,-1.65024 -0.011,-0.008 0.011,-0.0237 0,-0.0311 -2e-4,-0.0607 0,-0.12519 0,-0.18682 z m -0.3527,0.99637 c -0.3558,-0.37828 -0.6287,-0.68597 -0.9412,-1.0275 -47.4331,8.1239 -72.9152,12.3188 -161.52578,26.21699 -48.5846,7.62028 -98.04391,14.87205 -146.58499,22.51174 -47.55739,7.48486 -94.50197,15.23842 -141.76157,22.85424 -207.58058,33.45131 -86.00379,13.71979 -290.22888,47.07849 -118.83881,19.43579 -136.06301,21.94187 -247.75923,41.28709 -28.89026,5.00365 -58.315487,9.80683 -86.115731,15.22578 -1.95416,0.38091 -3.845187,0.78986 -5.764579,1.18319 3.271539,0.67541 6.138658,1.37654 7.882179,1.89933 0.724089,0.21712 1.359577,0.45289 1.999956,0.68501 0.540868,-0.55433 3.084501,0.089 5.999867,1.15205 12.561171,2.18377 21.079081,4.31153 11.176221,4.54594 1.21687,0.30486 1.50129,0.46962 0.11765,0.3425 0.56281,0.30855 1.09236,0.61064 1.52938,0.9341 0.0123,0.009 -0.0122,0.022 0,0.0311 1.78027,0.23087 3.23913,0.43451 4.94106,0.65387 0.0324,0.004 0.0852,-0.004 0.11765,0 4.1741,0.0278 8.38694,0.13384 12.470307,0.3425 4.42342,0.0247 9.05301,0.0799 13.64675,0.21796 1.9585,-4.9e-4 3.91539,-0.008 5.88222,0 0.71841,0.005 1.51695,-0.006 2.23525,0 0.13605,0.001 0.19169,0.0299 0.35293,0.0311 1.86685,-0.0409 3.78009,-0.0836 5.64694,-0.12455 13.90312,0.18466 15.0736,0.0196 27.41116,1.21433 9.92022,0.35408 19.78836,0.96396 28.46995,2.36638 5.25897,0.84952 19.64612,3.50858 16.35258,3.33161 -0.21955,-0.0118 -0.55681,-0.0239 -0.94115,-0.0623 -1.77925,-0.17751 -3.4308,-0.43026 -5.05871,-0.685 2.46278,0.47368 4.89884,0.94646 7.4116,1.40115 -0.41842,-0.19872 -0.88025,-0.39225 -1.29409,-0.5916 0.71886,0.12377 4.29933,1.13289 3.1764,0.9341 -0.63873,-0.11308 -1.24804,-0.22773 -1.88231,-0.3425 0.75893,0.36044 1.47613,0.72868 2.23524,1.08978 6.28819,1e-5 12.53493,-6.2e-4 18.82311,0 4.34519,0.002 8.71345,-0.0212 13.05854,-0.0311 3.83075,8.7e-4 7.70383,0.0179 11.52916,0.0623 8.34432,-0.16139 16.49658,-0.175 24.82298,0.0934 2.89047,0.0933 5.93352,0.10817 8.70569,0.3425 1.34907,0.0223 2.77734,0.0476 4.11755,0.0934 2.22475,0.0759 4.38941,0.19164 6.58809,0.31137 1.45693,-8.8e-4 2.89653,0.006 4.35285,0 8.33159,0.21731 16.55472,0.45137 24.58769,1.12092 2.13359,0.17784 6.48555,0.43873 9.29391,0.65386 2.68805,0.13102 6.78015,0.23239 5.05871,0.43592 0.39771,0.025 0.77885,0.0682 1.17645,0.0934 2.10595,0.0764 0.76685,0.014 4.70578,0.15568 1.87057,0.17971 3.77625,0.34969 5.64693,0.52932 0.36543,-0.0365 4.94597,0.17995 3.88227,0.28023 -0.19787,0.0186 -0.53145,0.0292 -0.82352,0.0311 9.77883,0.5169 8.03328,0.26589 13.29383,0.87182 0.053,0.003 0.0639,-0.003 0.11764,0 0.19994,0.023 0.83414,0.0987 1.0588,0.12455 6.82653,0.0353 4.85547,-0.0301 17.64667,1.2766 2.71252,0.13591 5.33833,0.31482 7.99982,0.56045 1.4633,-0.0949 3.29641,0.10696 5.17636,0.37364 5.54161,-2.00236 11.32543,-3.95069 17.17609,-5.85367 17.12949,-5.57151 33.96718,-11.24104 53.1753,-16.31556 70.14625,-18.53168 119.65649,-27.28085 200.46615,-43.5912 122.78659,-22.2288 145.85187,-26.97556 274.46452,-47.82577 47.6593,-7.72634 96.19226,-15.06717 144.34966,-22.57401 22.4599,-3.50107 44.8659,-7.0363 67.2927,-10.5553 -1.2161,-1.26291 -1.8619,-2.45126 -1.6471,-3.86093 -1.8203,-1.66681 -2.2267,-2.24746 -1.8823,-3.54957 l -1.9999,-2.49093 c 0,-1.1832 0.011,-2.36636 0,-3.54956 6e-4,-0.83081 0.038,-1.66022 0,-2.49093 -0.044,-0.58457 -0.099,-1.15962 -0.1175,-1.74365 -1.4767,-0.15411 -1.2463,-0.96288 -1.647,-1.43228 -2.3198,-2.71744 -4.3571,-4.81394 -3.9999,-7.37937 0,-1.00803 -0.011,-2.01222 0,-3.02024 7e-4,-1.18065 -0.011,-2.36915 0.1174,-3.54957 0.01,-0.0529 0,-0.10278 0,-0.15568 0.03,0.06 0.1032,0.0997 -0.5882,-2.5532 0.4125,-0.72307 0.563,-1.44989 0.8235,-2.17956 -0.4252,-0.74234 -0.6744,-1.42238 -0.3527,-1.8682 l 0,-4.29684 c 0,-1.00667 -2e-4,-2.01358 0,-3.02025 10e-5,-0.52971 10e-5,-1.05826 0,-1.58797 -0.055,-0.0662 -0.1013,-0.10142 0,-0.0934 0,-0.14541 0,-0.2905 0,-0.43591 -0.5021,-0.50604 -0.9065,-0.97294 -1.0588,-1.40114 -2.9209,-1.57477 -4.5846,-2.83818 -4.5881,-4.70163 z m 4.5879,4.70163 c 0.3147,0.16965 0.7177,0.32833 1.0588,0.49818 2e-4,-0.22795 -5e-4,-0.45706 0,-0.685 -0.4399,-0.27938 -0.839,-0.56374 -1.2941,-0.84069 0.044,0.37687 0.1269,0.72284 0.2353,1.02751 z m -0.2353,-1.02751 c -0.015,-0.14188 -0.1031,-0.30668 -0.1174,-0.46705 -0.5797,-0.22077 -1.1897,-0.43229 -1.7647,-0.65387 0.524,0.38621 1.2623,0.74362 1.8823,1.12092 z m -1.8823,-1.12092 c -0.1927,-0.14192 -0.2981,-0.29211 -0.4706,-0.43591 0.067,0.0802 0.1811,0.24236 0.2353,0.31137 0.098,0.038 0.1367,0.0866 0.2353,0.12454 z m -0.4706,-0.43591 c -0.2661,-0.31668 -0.7777,-0.78541 -1.1764,-1.21433 0.204,0.30314 0.4317,0.64225 0.8235,0.99637 0.084,0.0759 0.2628,0.14268 0.3527,0.21796 z M 84.438323,368.03369 c -0.20762,-0.11383 -0.35759,-0.23127 -0.58822,-0.3425 -0.67823,0.0118 -1.395866,0.0361 -2.235248,0.0311 0.702377,0.0811 1.410708,0.17162 2.117598,0.2491 0.30539,0.0335 0.48656,0.0421 0.70587,0.0623 z m -2.823468,-0.31137 c -1.950458,-1.02043 -1.624296,-0.82995 -2.235245,-1.15205 0.670969,0.36743 1.093656,0.61014 1.999956,1.12092 0.0796,0.009 0.155626,0.0219 0.235289,0.0311 z m -0.235289,-0.0311 c -1.483302,-0.1723 -3.009194,-0.34129 -4.470489,-0.52932 0.242151,0.15443 0.460622,0.31269 0.705866,0.46704 1.168733,0.0484 3.354851,0.25378 4.352845,0.40478 -0.201996,-0.117 -0.378163,-0.22411 -0.588222,-0.3425 z m -4.470489,-0.52932 c -1.105025,-0.70477 -2.272867,-1.38874 -3.41169,-2.08615 -0.812948,-0.22375 -1.634076,-0.45801 -2.352889,-0.68501 0.99562,0.80144 1.947277,1.59592 2.941112,2.39752 0.939137,0.12857 1.87423,0.25149 2.823467,0.37364 z m -2.823467,-0.37364 c -6.724335,-0.92062 -13.103474,-2.02253 -19.176047,-3.23821 0.852857,0.21825 1.8285,0.48772 2.705823,0.71614 l 7.882178,1.33888 c 3.033542,0.52483 6.02358,1.06375 9.058623,1.58796 -0.169585,-0.13387 -0.303948,-0.27037 -0.470577,-0.40477 z m -19.176047,-3.23821 c -2.738678,-0.70081 -5.39334,-1.35733 -7.882179,-1.9616 -0.193027,0.0428 -0.395518,0.0816 -0.588222,0.12455 2.740769,0.64559 5.536837,1.24977 8.470401,1.83705 z m 16.234935,0.84069 c -0.700024,-0.5635 -1.408203,-1.11873 -2.1176,-1.68137 1.732002,0.74525 3.135797,1.549 4.470489,2.36638 1.950534,0.53684 3.841458,1.01314 5.764579,1.46341 0.0221,0.0121 0.09511,0.0188 0.117644,0.0311 1.658243,0.3875 2.94324,0.71213 3.999913,0.96523 -2.3131,-1.09374 -6.570374,-3.0539 -10.235069,-4.39025 -1.627962,-0.28302 -3.322251,-0.55974 -5.058712,-0.84069 -0.03136,-0.0109 -0.08579,-0.0204 -0.117644,-0.0311 -0.273007,-0.0441 -0.548749,-0.0806 -0.823511,-0.12454 -0.02281,0.0609 -0.124015,0.10768 -0.117645,0.18682 0.04949,0.61487 1.791255,1.32037 4.117556,2.05501 z m -3.999911,-2.24183 c 0.01126,-0.03 -0.01799,-0.0677 0,-0.0934 -2.791755,-0.78199 -6.908707,-1.20313 -11.176224,-1.58797 3.696807,0.51899 7.484951,1.09132 11.176224,1.68138 z M 55.968363,360.4675 c -0.766787,-0.10764 -1.600907,-0.20872 -2.352889,-0.31136 -0.110142,0.0232 -0.242901,0.039 -0.352933,0.0623 0.905684,0.0812 1.794698,0.16693 2.705822,0.24909 z M 1138.1797,183.0202 c 0.015,-0.0641 -0.019,-0.12119 0,-0.18682 -0.065,0.0111 -0.053,0.0512 -0.1175,0.0623 0.055,0.0407 0.063,0.0838 0.1175,0.12455 z m 5.0587,4.63935 c 0.1122,0.11374 0.2432,0.22779 0.3527,0.3425 10e-5,-0.0725 0,-0.14543 0,-0.21795 -0.111,-0.0426 -0.2405,-0.0819 -0.3527,-0.12455 z m 2.8234,28.33428 c -0.1298,0.34995 -0.2142,0.67809 -0.1174,1.0275 0.3049,1.10158 1.1875,2.20657 1.7647,3.30048 0.1999,0.15182 0.5915,0.35604 1.0588,0.56046 -0.9724,-1.62448 -1.8513,-3.25955 -2.7059,-4.88844 z m 5.4117,16.22215 c 0.023,0.39586 0.5813,1.10687 1.8823,2.52206 0.01,-0.0212 0.1096,-0.0409 0.1175,-0.0623 l -1.9998,-2.45979 z m 2.2352,3.8298 c 0.1382,0.51295 0.68,1.14044 1.4118,1.93046 0.023,-0.17285 0,-0.32743 0.1174,-0.40477 -0.5912,-0.58015 -1.0822,-1.11064 -1.5294,-1.52569 z m 2.4706,2.52206 c -0.068,0.0797 -0.1386,0.16727 -0.2353,0.24909 0.1389,0.1272 0.2947,0.24984 0.4706,0.37364 0.1042,-0.0164 0.2488,-0.0148 0.3527,-0.0311 -0.1943,-0.20088 -0.406,-0.40661 -0.5882,-0.59159 z m -0.8235,0.62273 c -0.1119,0.0746 -0.2331,0.1426 -0.3528,0.21796 0.1506,-0.0236 0.32,-0.0387 0.4706,-0.0623 -0.026,-0.0522 -0.091,-0.1035 -0.1175,-0.15568 z M 81.026633,368.22051 c 0.599259,0.0854 1.066345,0.13508 1.647022,0.21795 -0.128731,-0.0767 -0.339016,-0.14074 -0.470578,-0.21795 -0.402453,0.0247 -0.779123,0.0151 -1.176444,0 z m 42.587287,2.05501 c -0.17216,0.0282 0.0662,0.0137 0.35293,0 -0.10368,0.004 -0.30297,-0.008 -0.35293,0 z m 75.64538,6.97459 c 0.15018,0.0872 2.52484,0.77655 4.94107,1.5257 0.27576,0 0.54777,-10e-6 0.82351,0 -0.0558,-0.0963 -0.0365,-0.1659 0,-0.21796 -0.3244,-0.12972 -0.48903,-0.20969 -0.82351,-0.3425 -3.62219,-0.76541 -5.0994,-1.05719 -4.94107,-0.96524 z m 13.29383,3.64298 c 0.16831,0.0718 0.30715,0.14668 0.47058,0.21796 0.51477,0.0696 1.01037,0.15052 1.52937,0.21795 1.52173,0.19772 0.17491,-0.0817 -1.99995,-0.43591 z m 139.29104,2.74002 c 0.13891,0.005 0.11226,0.0247 0.35293,0.0311 5.86003,0.1574 9.46557,0.21749 12.23502,0.24909 -0.35207,-0.0315 -1.23843,-0.0981 -1.52938,-0.12455 -3.85936,-0.0546 -9.33858,-0.15039 -11.05857,-0.15568 z m 21.76422,1.02751 c 0.0696,0.005 0.0931,0.023 0.23529,0.0311 2.75737,0.15672 5.40743,0.28725 7.99982,0.40478 -0.53636,-0.0473 -0.9817,-0.11134 -1.52938,-0.15568 -1.57574,-0.12762 -5.66495,-0.26803 -6.70573,-0.28023 z"
       id="path3906"
       inkscape:connector-curvature="0" />
  </g>
  <g
     inkscape:groupmode="layer"
     id="layer4"
     inkscape:label="text"
     transform="translate(3.771085,4.998127)"
     sodipodi:insensitive="true"
     style="display:inline">
    <flowRoot
       xml:space="preserve"
       id="flowRoot4294"
       style="font-size:144px;font-style:normal;font-variant:normal;font-weight:normal;font-stretch:normal;text-align:start;line-height:125%;letter-spacing:0px;word-spacing:0px;writing-mode:lr-tb;text-anchor:start;fill:#000000;fill-opacity:1;stroke:none;font-family:Droid Serif;-inkscape-font-specification:Droid Serif"
       transform="matrix(1.2616687,0,0,1.2616687,-123.75846,-42.394084)"
       inkscape:export-filename="/home/tia/codes/github-com/StoreKeeper/client/app/img/flowRoot4294.png"
       inkscape:export-xdpi="12"
       inkscape:export-ydpi="12"><flowRegion
         id="flowRegion4296"
         style="stroke:url(#linearGradient4332)"><rect
           id="rect4298"
           width="963.68555"
           height="205.06097"
           x="95.964493"
           y="40.877056"
           style="font-size:144px;font-style:normal;font-variant:normal;font-weight:normal;font-stretch:normal;text-align:start;line-height:125%;writing-mode:lr-tb;text-anchor:start;fill:#000000;fill-opacity:1;stroke:none;font-family:Droid Serif;-inkscape-font-specification:Droid Serif" /></flowRegion><flowPara
         id="flowPara4300"
         style="fill:#000000;fill-opacity:1;stroke:none">StoreKeeper</flowPara></flowRoot>  </g>
</svg>
